# xmcd CD database file
#
# Track frame offsets:
#	150
#	10609
#	20421
#	35651
#	59367
#	71934
#	89162
#	101272
#	116716
#	127162
#
# Disc length: 2025 seconds
#
# Revision: 0
# Processed by: cddbd v1.5.1PL2 Copyright (c) Steve Scherf et al.
# Submitted via: CDex 1.51
#
DISCID=8c07e70a
DTITLE=J.J.Cale - Shades
DYEAR=1980
DGENRE=Blues
TTITLE0=CARRY ON
TTITLE1=DEEP DARK DUNGEON
TTITLE2=WISH I HAD NOT SAID
TTITLE3=PACK MY JACK
TTITLE4=IF YOU LEAVE HER
TTITLE5=MAMA DON'T
TTITLE6=RUNARAOUND
TTITLE7=WHAT DO YOU EXPECT
TTITLE8=LOVE HAS BEEN GONE
TTITLE9=CLOUDY DAY
EXTD=YEAR: 1980
EXTT0=
EXTT1=
EXTT2=
EXTT3=
EXTT4=
EXTT5=
EXTT6=
EXTT7=
EXTT8=
EXTT9=
PLAYORDER=
